<?xml version="1.0" encoding="utf-8" standalone="no"?>
<!DOCTYPE svg PUBLIC "-//W3C//DTD SVG 1.1//EN"
  "http://www.w3.org/Graphics/SVG/1.1/DTD/svg11.dtd">
<svg xmlns:xlink="http://www.w3.org/1999/xlink" width="460.8pt" height="129.6pt" viewBox="0 0 460.8 129.6" xmlns="http://www.w3.org/2000/svg" version="1.1">
 <metadata>
  <rdf:RDF xmlns:dc="http://purl.org/dc/elements/1.1/" xmlns:cc="http://creativecommons.org/ns#" xmlns:rdf="http://www.w3.org/1999/02/22-rdf-syntax-ns#">
   <cc:Work>
    <dc:type rdf:resource="http://purl.org/dc/dcmitype/StillImage"/>
    <dc:format>image/svg+xml</dc:format>
    <dc:creator>
     <cc:Agent>
      <dc:title>Matplotlib v3.11.1, https://matplotlib.org/</dc:title>
     </cc:Agent>
    </dc:creator>
   </cc:Work>
  </rdf:RDF>
 </metadata>
 <defs>
  <style type="text/css">*{stroke-linejoin: round; stroke-linecap: butt}</style>
 </defs>
 <g id="figure_1">
  <g id="patch_1">
   <path d="M 0 129.6
L 460.8 129.6
L 460.8 0
L 0 0
z
" style="fill: #ffffff"/>
  </g>
  <g id="axes_1">
   <g id="patch_2">
    <path d="M 57.082109 93.4
L 453.6 93.4
L 453.6 7.2
L 57.082109 7.2
z
" style="fill: #ffffff"/>
   </g>
   <g id="matplotlib.axis_1">
    <g id="xtick_1">
     <g id="line2d_1">
      <defs>
       <path id="mee2a2521fc" d="M 0 0
L 0 3.5
" style="stroke: #64716f; stroke-width: 0.8"/>
      </defs>
      <g>
       <use xlink:href="#mee2a2521fc" x="94.590558" y="93.4" style="fill: #64716f; stroke: #64716f; stroke-width: 0.8"/>
      </g>
     </g>
     <g id="text_1">
      <!-- 1980 -->
      <g style="fill: #64716f" transform="translate(83.138058 107.237891) scale(0.09 -0.09)">
       <defs>
        <path id="DejaVuSans-14" d="M 794 531
L 1825 531
L 1825 4091
L 703 3866
L 703 4441
L 1819 4666
L 2450 4666
L 2450 531
L 3481 531
L 3481 0
L 794 0
L 794 531
z
" transform="scale(0.015625)"/>
        <path id="DejaVuSans-1c" d="M 703 97
L 703 672
Q 941 559 1184 500
Q 1428 441 1663 441
Q 2288 441 2617 861
Q 2947 1281 2994 2138
Q 2813 1869 2534 1725
Q 2256 1581 1919 1581
Q 1219 1581 811 2004
Q 403 2428 403 3163
Q 403 3881 828 4315
Q 1253 4750 1959 4750
Q 2769 4750 3195 4129
Q 3622 3509 3622 2328
Q 3622 1225 3098 567
Q 2575 -91 1691 -91
Q 1453 -91 1209 -44
Q 966 3 703 97
z
M 1959 2075
Q 2384 2075 2632 2365
Q 2881 2656 2881 3163
Q 2881 3666 2632 3958
Q 2384 4250 1959 4250
Q 1534 4250 1286 3958
Q 1038 3666 1038 3163
Q 1038 2656 1286 2365
Q 1534 2075 1959 2075
z
" transform="scale(0.015625)"/>
        <path id="DejaVuSans-1b" d="M 2034 2216
Q 1584 2216 1326 1975
Q 1069 1734 1069 1313
Q 1069 891 1326 650
Q 1584 409 2034 409
Q 2484 409 2743 651
Q 3003 894 3003 1313
Q 3003 1734 2745 1975
Q 2488 2216 2034 2216
z
M 1403 2484
Q 997 2584 770 2862
Q 544 3141 544 3541
Q 544 4100 942 4425
Q 1341 4750 2034 4750
Q 2731 4750 3128 4425
Q 3525 4100 3525 3541
Q 3525 3141 3298 2862
Q 3072 2584 2669 2484
Q 3125 2378 3379 2068
Q 3634 1759 3634 1313
Q 3634 634 3220 271
Q 2806 -91 2034 -91
Q 1263 -91 848 271
Q 434 634 434 1313
Q 434 1759 690 2068
Q 947 2378 1403 2484
z
M 1172 3481
Q 1172 3119 1398 2916
Q 1625 2713 2034 2713
Q 2441 2713 2670 2916
Q 2900 3119 2900 3481
Q 2900 3844 2670 4047
Q 2441 4250 2034 4250
Q 1625 4250 1398 4047
Q 1172 3844 1172 3481
z
" transform="scale(0.015625)"/>
        <path id="DejaVuSans-13" d="M 2034 4250
Q 1547 4250 1301 3770
Q 1056 3291 1056 2328
Q 1056 1369 1301 889
Q 1547 409 2034 409
Q 2525 409 2770 889
Q 3016 1369 3016 2328
Q 3016 3291 2770 3770
Q 2525 4250 2034 4250
z
M 2034 4750
Q 2819 4750 3233 4129
Q 3647 3509 3647 2328
Q 3647 1150 3233 529
Q 2819 -91 2034 -91
Q 1250 -91 836 529
Q 422 1150 422 2328
Q 422 3509 836 4129
Q 1250 4750 2034 4750
z
" transform="scale(0.015625)"/>
       </defs>
       <use xlink:href="#DejaVuSans-14"/>
       <use xlink:href="#DejaVuSans-1c" transform="translate(63.625 0)"/>
       <use xlink:href="#DejaVuSans-1b" transform="translate(127.25 0)"/>
       <use xlink:href="#DejaVuSans-13" transform="translate(190.875 0)"/>
      </g>
     </g>
    </g>
    <g id="xtick_2">
     <g id="line2d_2">
      <g>
       <use xlink:href="#mee2a2521fc" x="143.30283" y="93.4" style="fill: #64716f; stroke: #64716f; stroke-width: 0.8"/>
      </g>
     </g>
     <g id="text_2">
      <!-- 1985 -->
      <g style="fill: #64716f" transform="translate(131.85033 107.237891) scale(0.09 -0.09)">
       <defs>
        <path id="DejaVuSans-18" d="M 691 4666
L 3169 4666
L 3169 4134
L 1269 4134
L 1269 2991
Q 1406 3038 1543 3061
Q 1681 3084 1819 3084
Q 2600 3084 3056 2656
Q 3513 2228 3513 1497
Q 3513 744 3044 326
Q 2575 -91 1722 -91
Q 1428 -91 1123 -41
Q 819 9 494 109
L 494 744
Q 775 591 1075 516
Q 1375 441 1709 441
Q 2250 441 2565 725
Q 2881 1009 2881 1497
Q 2881 1984 2565 2268
Q 2250 2553 1709 2553
Q 1456 2553 1204 2497
Q 953 2441 691 2322
L 691 4666
z
" transform="scale(0.015625)"/>
       </defs>
       <use xlink:href="#DejaVuSans-14"/>
       <use xlink:href="#DejaVuSans-1c" transform="translate(63.625 0)"/>
       <use xlink:href="#DejaVuSans-1b" transform="translate(127.25 0)"/>
       <use xlink:href="#DejaVuSans-18" transform="translate(190.875 0)"/>
      </g>
     </g>
    </g>
    <g id="xtick_3">
     <g id="line2d_3">
      <g>
       <use xlink:href="#mee2a2521fc" x="192.015102" y="93.4" style="fill: #64716f; stroke: #64716f; stroke-width: 0.8"/>
      </g>
     </g>
     <g id="text_3">
      <!-- 1990 -->
      <g style="fill: #64716f" transform="translate(180.562602 107.237891) scale(0.09 -0.09)">
       <use xlink:href="#DejaVuSans-14"/>
       <use xlink:href="#DejaVuSans-1c" transform="translate(63.625 0)"/>
       <use xlink:href="#DejaVuSans-1c" transform="translate(127.25 0)"/>
       <use xlink:href="#DejaVuSans-13" transform="translate(190.875 0)"/>
      </g>
     </g>
    </g>
    <g id="xtick_4">
     <g id="line2d_4">
      <g>
       <use xlink:href="#mee2a2521fc" x="240.727373" y="93.4" style="fill: #64716f; stroke: #64716f; stroke-width: 0.8"/>
      </g>
     </g>
     <g id="text_4">
      <!-- 1995 -->
      <g style="fill: #64716f" transform="translate(229.274873 107.237891) scale(0.09 -0.09)">
       <use xlink:href="#DejaVuSans-14"/>
       <use xlink:href="#DejaVuSans-1c" transform="translate(63.625 0)"/>
       <use xlink:href="#DejaVuSans-1c" transform="translate(127.25 0)"/>
       <use xlink:href="#DejaVuSans-18" transform="translate(190.875 0)"/>
      </g>
     </g>
    </g>
    <g id="xtick_5">
     <g id="line2d_5">
      <g>
       <use xlink:href="#mee2a2521fc" x="289.439645" y="93.4" style="fill: #64716f; stroke: #64716f; stroke-width: 0.8"/>
      </g>
     </g>
     <g id="text_5">
      <!-- 2000 -->
      <g style="fill: #64716f" transform="translate(277.987145 107.237891) scale(0.09 -0.09)">
       <defs>
        <path id="DejaVuSans-15" d="M 1228 531
L 3431 531
L 3431 0
L 469 0
L 469 531
Q 828 903 1448 1529
Q 2069 2156 2228 2338
Q 2531 2678 2651 2914
Q 2772 3150 2772 3378
Q 2772 3750 2511 3984
Q 2250 4219 1831 4219
Q 1534 4219 1204 4116
Q 875 4013 500 3803
L 500 4441
Q 881 4594 1212 4672
Q 1544 4750 1819 4750
Q 2544 4750 2975 4387
Q 3406 4025 3406 3419
Q 3406 3131 3298 2873
Q 3191 2616 2906 2266
Q 2828 2175 2409 1742
Q 1991 1309 1228 531
z
" transform="scale(0.015625)"/>
       </defs>
       <use xlink:href="#DejaVuSans-15"/>
       <use xlink:href="#DejaVuSans-13" transform="translate(63.625 0)"/>
       <use xlink:href="#DejaVuSans-13" transform="translate(127.25 0)"/>
       <use xlink:href="#DejaVuSans-13" transform="translate(190.875 0)"/>
      </g>
     </g>
    </g>
    <g id="xtick_6">
     <g id="line2d_6">
      <g>
       <use xlink:href="#mee2a2521fc" x="338.151916" y="93.4" style="fill: #64716f; stroke: #64716f; stroke-width: 0.8"/>
      </g>
     </g>
     <g id="text_6">
      <!-- 2005 -->
      <g style="fill: #64716f" transform="translate(326.699416 107.237891) scale(0.09 -0.09)">
       <use xlink:href="#DejaVuSans-15"/>
       <use xlink:href="#DejaVuSans-13" transform="translate(63.625 0)"/>
       <use xlink:href="#DejaVuSans-13" transform="translate(127.25 0)"/>
       <use xlink:href="#DejaVuSans-18" transform="translate(190.875 0)"/>
      </g>
     </g>
    </g>
    <g id="xtick_7">
     <g id="line2d_7">
      <g>
       <use xlink:href="#mee2a2521fc" x="386.864188" y="93.4" style="fill: #64716f; stroke: #64716f; stroke-width: 0.8"/>
      </g>
     </g>
     <g id="text_7">
      <!-- 2010 -->
      <g style="fill: #64716f" transform="translate(375.411688 107.237891) scale(0.09 -0.09)">
       <use xlink:href="#DejaVuSans-15"/>
       <use xlink:href="#DejaVuSans-13" transform="translate(63.625 0)"/>
       <use xlink:href="#DejaVuSans-14" transform="translate(127.25 0)"/>
       <use xlink:href="#DejaVuSans-13" transform="translate(190.875 0)"/>
      </g>
     </g>
    </g>
    <g id="xtick_8">
     <g id="line2d_8">
      <g>
       <use xlink:href="#mee2a2521fc" x="435.57646" y="93.4" style="fill: #64716f; stroke: #64716f; stroke-width: 0.8"/>
      </g>
     </g>
     <g id="text_8">
      <!-- 2015 -->
      <g style="fill: #64716f" transform="translate(424.12396 107.237891) scale(0.09 -0.09)">
       <use xlink:href="#DejaVuSans-15"/>
       <use xlink:href="#DejaVuSans-13" transform="translate(63.625 0)"/>
       <use xlink:href="#DejaVuSans-14" transform="translate(127.25 0)"/>
       <use xlink:href="#DejaVuSans-18" transform="translate(190.875 0)"/>
      </g>
     </g>
    </g>
    <g id="text_9">
     <!-- Year -->
     <g style="fill: #34423d" transform="translate(245.813711 120.237891) scale(0.09 -0.09)">
      <defs>
       <path id="DejaVuSans-3c" d="M -13 4666
L 666 4666
L 1959 2747
L 3244 4666
L 3922 4666
L 2272 2222
L 2272 0
L 1638 0
L 1638 2222
L -13 4666
z
" transform="scale(0.015625)"/>
       <path id="DejaVuSans-48" d="M 3597 1894
L 3597 1613
L 953 1613
Q 991 1019 1311 708
Q 1631 397 2203 397
Q 2534 397 2845 478
Q 3156 559 3463 722
L 3463 178
Q 3153 47 2828 -22
Q 2503 -91 2169 -91
Q 1331 -91 842 396
Q 353 884 353 1716
Q 353 2575 817 3079
Q 1281 3584 2069 3584
Q 2775 3584 3186 3129
Q 3597 2675 3597 1894
z
M 3022 2063
Q 3016 2534 2758 2815
Q 2500 3097 2075 3097
Q 1594 3097 1305 2825
Q 1016 2553 972 2059
L 3022 2063
z
" transform="scale(0.015625)"/>
       <path id="DejaVuSans-44" d="M 2194 1759
Q 1497 1759 1228 1600
Q 959 1441 959 1056
Q 959 750 1161 570
Q 1363 391 1709 391
Q 2188 391 2477 730
Q 2766 1069 2766 1631
L 2766 1759
L 2194 1759
z
M 3341 1997
L 3341 0
L 2766 0
L 2766 531
Q 2569 213 2275 61
Q 1981 -91 1556 -91
Q 1019 -91 701 211
Q 384 513 384 1019
Q 384 1609 779 1909
Q 1175 2209 1959 2209
L 2766 2209
L 2766 2266
Q 2766 2663 2505 2880
Q 2244 3097 1772 3097
Q 1472 3097 1187 3025
Q 903 2953 641 2809
L 641 3341
Q 956 3463 1253 3523
Q 1550 3584 1831 3584
Q 2591 3584 2966 3190
Q 3341 2797 3341 1997
z
" transform="scale(0.015625)"/>
       <path id="DejaVuSans-55" d="M 2631 2963
Q 2534 3019 2420 3045
Q 2306 3072 2169 3072
Q 1681 3072 1420 2755
Q 1159 2438 1159 1844
L 1159 0
L 581 0
L 581 3500
L 1159 3500
L 1159 2956
Q 1341 3275 1631 3429
Q 1922 3584 2338 3584
Q 2397 3584 2469 3576
Q 2541 3569 2628 3553
L 2631 2963
z
" transform="scale(0.015625)"/>
      </defs>
      <use xlink:href="#DejaVuSans-3c"/>
      <use xlink:href="#DejaVuSans-48" transform="translate(47.796875 0)"/>
      <use xlink:href="#DejaVuSans-44" transform="translate(109.328125 0)"/>
      <use xlink:href="#DejaVuSans-55" transform="translate(170.609375 0)"/>
     </g>
    </g>
   </g>
   <g id="matplotlib.axis_2">
    <g id="ytick_1">
     <g id="line2d_9">
      <defs>
       <path id="m582aca96d9" d="M 0 0
L -3.5 0
" style="stroke: #64716f; stroke-width: 0.8"/>
      </defs>
      <g>
       <use xlink:href="#m582aca96d9" x="57.082109" y="92.222251" style="fill: #64716f; stroke: #64716f; stroke-width: 0.8"/>
      </g>
     </g>
     <g id="text_10">
      <!-- 22000 -->
      <g style="fill: #64716f" transform="translate(21.450859 95.641196) scale(0.09 -0.09)">
       <use xlink:href="#DejaVuSans-15"/>
       <use xlink:href="#DejaVuSans-15" transform="translate(63.625 0)"/>
       <use xlink:href="#DejaVuSans-13" transform="translate(127.25 0)"/>
       <use xlink:href="#DejaVuSans-13" transform="translate(190.875 0)"/>
       <use xlink:href="#DejaVuSans-13" transform="translate(254.5 0)"/>
      </g>
     </g>
    </g>
    <g id="ytick_2">
     <g id="line2d_10">
      <g>
       <use xlink:href="#m582aca96d9" x="57.082109" y="55.474774" style="fill: #64716f; stroke: #64716f; stroke-width: 0.8"/>
      </g>
     </g>
     <g id="text_11">
      <!-- 24000 -->
      <g style="fill: #64716f" transform="translate(21.450859 58.89372) scale(0.09 -0.09)">
       <defs>
        <path id="DejaVuSans-17" d="M 2419 4116
L 825 1625
L 2419 1625
L 2419 4116
z
M 2253 4666
L 3047 4666
L 3047 1625
L 3713 1625
L 3713 1100
L 3047 1100
L 3047 0
L 2419 0
L 2419 1100
L 313 1100
L 313 1709
L 2253 4666
z
" transform="scale(0.015625)"/>
       </defs>
       <use xlink:href="#DejaVuSans-15"/>
       <use xlink:href="#DejaVuSans-17" transform="translate(63.625 0)"/>
       <use xlink:href="#DejaVuSans-13" transform="translate(127.25 0)"/>
       <use xlink:href="#DejaVuSans-13" transform="translate(190.875 0)"/>
       <use xlink:href="#DejaVuSans-13" transform="translate(254.5 0)"/>
      </g>
     </g>
    </g>
    <g id="ytick_3">
     <g id="line2d_11">
      <g>
       <use xlink:href="#m582aca96d9" x="57.082109" y="18.727298" style="fill: #64716f; stroke: #64716f; stroke-width: 0.8"/>
      </g>
     </g>
     <g id="text_12">
      <!-- 26000 -->
      <g style="fill: #64716f" transform="translate(21.450859 22.146243) scale(0.09 -0.09)">
       <defs>
        <path id="DejaVuSans-19" d="M 2113 2584
Q 1688 2584 1439 2293
Q 1191 2003 1191 1497
Q 1191 994 1439 701
Q 1688 409 2113 409
Q 2538 409 2786 701
Q 3034 994 3034 1497
Q 3034 2003 2786 2293
Q 2538 2584 2113 2584
z
M 3366 4563
L 3366 3988
Q 3128 4100 2886 4159
Q 2644 4219 2406 4219
Q 1781 4219 1451 3797
Q 1122 3375 1075 2522
Q 1259 2794 1537 2939
Q 1816 3084 2150 3084
Q 2853 3084 3261 2657
Q 3669 2231 3669 1497
Q 3669 778 3244 343
Q 2819 -91 2113 -91
Q 1303 -91 875 529
Q 447 1150 447 2328
Q 447 3434 972 4092
Q 1497 4750 2381 4750
Q 2619 4750 2861 4703
Q 3103 4656 3366 4563
z
" transform="scale(0.015625)"/>
       </defs>
       <use xlink:href="#DejaVuSans-15"/>
       <use xlink:href="#DejaVuSans-19" transform="translate(63.625 0)"/>
       <use xlink:href="#DejaVuSans-13" transform="translate(127.25 0)"/>
       <use xlink:href="#DejaVuSans-13" transform="translate(190.875 0)"/>
       <use xlink:href="#DejaVuSans-13" transform="translate(254.5 0)"/>
      </g>
     </g>
    </g>
    <g id="text_13">
     <!-- Employment -->
     <g style="fill: #34423d" transform="translate(15.28875 78.81875) rotate(-90) scale(0.09 -0.09)">
      <defs>
       <path id="DejaVuSans-28" d="M 628 4666
L 3578 4666
L 3578 4134
L 1259 4134
L 1259 2753
L 3481 2753
L 3481 2222
L 1259 2222
L 1259 531
L 3634 531
L 3634 0
L 628 0
L 628 4666
z
" transform="scale(0.015625)"/>
       <path id="DejaVuSans-50" d="M 3328 2828
Q 3544 3216 3844 3400
Q 4144 3584 4550 3584
Q 5097 3584 5394 3201
Q 5691 2819 5691 2113
L 5691 0
L 5113 0
L 5113 2094
Q 5113 2597 4934 2840
Q 4756 3084 4391 3084
Q 3944 3084 3684 2787
Q 3425 2491 3425 1978
L 3425 0
L 2847 0
L 2847 2094
Q 2847 2600 2669 2842
Q 2491 3084 2119 3084
Q 1678 3084 1418 2786
Q 1159 2488 1159 1978
L 1159 0
L 581 0
L 581 3500
L 1159 3500
L 1159 2956
Q 1356 3278 1631 3431
Q 1906 3584 2284 3584
Q 2666 3584 2933 3390
Q 3200 3197 3328 2828
z
" transform="scale(0.015625)"/>
       <path id="DejaVuSans-53" d="M 1159 525
L 1159 -1331
L 581 -1331
L 581 3500
L 1159 3500
L 1159 2969
Q 1341 3281 1617 3432
Q 1894 3584 2278 3584
Q 2916 3584 3314 3078
Q 3713 2572 3713 1747
Q 3713 922 3314 415
Q 2916 -91 2278 -91
Q 1894 -91 1617 61
Q 1341 213 1159 525
z
M 3116 1747
Q 3116 2381 2855 2742
Q 2594 3103 2138 3103
Q 1681 3103 1420 2742
Q 1159 2381 1159 1747
Q 1159 1113 1420 752
Q 1681 391 2138 391
Q 2594 391 2855 752
Q 3116 1113 3116 1747
z
" transform="scale(0.015625)"/>
       <path id="DejaVuSans-4f" d="M 603 4863
L 1178 4863
L 1178 0
L 603 0
L 603 4863
z
" transform="scale(0.015625)"/>
       <path id="DejaVuSans-52" d="M 1959 3097
Q 1497 3097 1228 2736
Q 959 2375 959 1747
Q 959 1119 1226 758
Q 1494 397 1959 397
Q 2419 397 2687 759
Q 2956 1122 2956 1747
Q 2956 2369 2687 2733
Q 2419 3097 1959 3097
z
M 1959 3584
Q 2709 3584 3137 3096
Q 3566 2609 3566 1747
Q 3566 888 3137 398
Q 2709 -91 1959 -91
Q 1206 -91 779 398
Q 353 888 353 1747
Q 353 2609 779 3096
Q 1206 3584 1959 3584
z
" transform="scale(0.015625)"/>
       <path id="DejaVuSans-5c" d="M 2059 -325
Q 1816 -950 1584 -1140
Q 1353 -1331 966 -1331
L 506 -1331
L 506 -850
L 844 -850
Q 1081 -850 1212 -737
Q 1344 -625 1503 -206
L 1606 56
L 191 3500
L 800 3500
L 1894 763
L 2988 3500
L 3597 3500
L 2059 -325
z
" transform="scale(0.015625)"/>
       <path id="DejaVuSans-51" d="M 3513 2113
L 3513 0
L 2938 0
L 2938 2094
Q 2938 2591 2744 2837
Q 2550 3084 2163 3084
Q 1697 3084 1428 2787
Q 1159 2491 1159 1978
L 1159 0
L 581 0
L 581 3500
L 1159 3500
L 1159 2956
Q 1366 3272 1645 3428
Q 1925 3584 2291 3584
Q 2894 3584 3203 3211
Q 3513 2838 3513 2113
z
" transform="scale(0.015625)"/>
       <path id="DejaVuSans-57" d="M 1172 4494
L 1172 3500
L 2356 3500
L 2356 3053
L 1172 3053
L 1172 1153
Q 1172 725 1289 603
Q 1406 481 1766 481
L 2356 481
L 2356 0
L 1766 0
Q 1100 0 847 248
Q 594 497 594 1153
L 594 3053
L 172 3053
L 172 3500
L 594 3500
L 594 4494
L 1172 4494
z
" transform="scale(0.015625)"/>
      </defs>
      <use xlink:href="#DejaVuSans-28"/>
      <use xlink:href="#DejaVuSans-50" transform="translate(63.1875 0)"/>
      <use xlink:href="#DejaVuSans-53" transform="translate(160.59375 0)"/>
      <use xlink:href="#DejaVuSans-4f" transform="translate(224.078125 0)"/>
      <use xlink:href="#DejaVuSans-52" transform="translate(251.859375 0)"/>
      <use xlink:href="#DejaVuSans-5c" transform="translate(313.046875 0)"/>
      <use xlink:href="#DejaVuSans-50" transform="translate(372.234375 0)"/>
      <use xlink:href="#DejaVuSans-48" transform="translate(469.640625 0)"/>
      <use xlink:href="#DejaVuSans-51" transform="translate(531.171875 0)"/>
      <use xlink:href="#DejaVuSans-57" transform="translate(594.546875 0)"/>
     </g>
    </g>
   </g>
   <g id="line2d_12">
    <path d="M 75.10565 85.347886
L 77.541263 84.429234
L 79.976877 85.347886
L 82.412491 84.429234
L 84.848104 84.88856
L 87.283718 83.510583
L 94.590558 82.132605
L 101.897399 83.510583
L 104.333013 83.051257
L 106.768626 84.88856
L 109.20424 86.266537
L 111.639854 84.88856
L 114.075467 84.429234
L 116.511081 83.051257
L 118.946694 83.051257
L 121.382308 82.591931
L 123.817921 83.510583
L 126.253535 83.969908
L 128.689149 83.969908
L 131.124762 84.88856
L 135.995989 87.644515
L 138.431603 88.103841
L 140.867216 89.481818
L 143.30283 89.022492
L 145.738444 89.022492
L 148.174057 88.563167
L 150.609671 86.725863
L 153.045284 86.725863
L 155.480898 85.807212
L 157.916512 85.807212
L 160.352125 86.266537
L 162.787739 85.807212
L 165.223352 84.429234
L 170.094579 83.510583
L 172.530193 82.132605
L 174.965807 81.213953
L 179.837034 78.457999
L 182.272647 76.161369
L 189.579488 72.027437
L 192.015102 76.161369
L 194.450715 75.242718
L 196.886329 75.242718
L 199.321942 74.324066
L 201.757556 73.86474
L 204.19317 74.324066
L 206.628783 74.324066
L 209.064397 74.783392
L 211.50001 75.702044
L 213.935624 76.161369
L 216.371237 77.998673
L 218.806851 78.917324
L 221.242465 80.754628
L 223.678078 81.673279
L 226.113692 82.132605
L 228.549305 83.051257
L 230.984919 82.591931
L 233.420532 80.754628
L 235.856146 79.37665
L 238.29176 78.917324
L 240.727373 77.539347
L 243.162987 75.702044
L 245.5986 75.702044
L 250.469828 73.86474
L 252.905441 73.405415
L 255.341055 73.405415
L 257.776668 73.86474
L 260.212282 75.242718
L 262.647895 75.702044
L 265.083509 75.242718
L 267.519123 74.324066
L 269.954736 72.486763
L 272.39035 71.108786
L 279.69719 68.352831
L 282.132804 66.974853
L 284.568418 65.13755
L 287.004031 62.381595
L 289.439645 58.706988
L 291.875258 55.491708
L 294.310872 52.735753
L 296.746486 50.439124
L 299.182099 49.520472
L 306.48894 45.38654
L 311.360167 43.549236
L 313.795781 42.171259
L 318.667008 41.252607
L 321.102621 42.630585
L 325.973848 42.630585
L 330.845076 40.793282
L 333.280689 39.415304
L 335.716303 38.955978
L 338.151916 38.037327
L 340.58753 36.200023
L 343.023144 37.118675
L 345.458757 37.118675
L 347.894371 36.659349
L 350.329984 35.740698
L 352.765598 32.984743
L 355.201211 30.688114
L 357.636825 29.769462
L 360.072439 27.472833
L 364.943666 21.960923
L 367.379279 19.664294
L 372.250506 19.664294
L 374.68612 19.204968
L 377.121734 21.960923
L 379.557347 23.338901
L 381.992961 25.176204
L 384.428574 26.094855
L 386.864188 23.798226
L 391.735415 22.879575
L 394.171029 23.338901
L 396.606642 22.879575
L 399.042256 21.960923
L 401.477869 21.960923
L 403.913483 21.501597
L 403.913483 21.501597
" clip-path="url(#p8e1a8a1ba0)" style="fill: none; stroke: #27665d; stroke-linecap: square"/>
   </g>
   <g id="line2d_13">
    <path d="M 318.667008 41.913302
L 321.102621 42.953439
L 323.538235 41.893275
L 325.973848 44.188338
L 328.409462 43.029139
L 330.845076 41.624283
L 333.280689 39.890537
L 335.716303 40.804263
L 338.151916 38.727112
L 340.58753 37.118675
L 343.023144 37.600986
L 345.458757 38.657292
L 347.894371 37.561298
L 350.329984 36.542842
L 352.765598 33.620132
L 355.201211 32.631441
L 357.636825 30.970639
L 360.072439 27.964327
L 362.508052 25.534033
L 364.943666 23.281964
L 367.379279 21.218226
L 369.814893 20.836419
L 372.250506 20.562651
L 374.68612 20.502752
L 377.121734 23.847324
L 379.557347 24.662383
L 381.992961 26.023509
L 384.428574 27.187486
L 386.864188 25.071199
L 389.299802 24.557101
L 391.735415 23.720178
L 394.171029 24.377957
L 396.606642 23.814251
L 399.042256 22.886377
L 401.477869 23.205162
L 403.913483 23.568962
L 406.349097 23.549118
L 408.78471 23.454493
L 411.220324 23.544341
L 413.655937 23.021792
L 416.091551 23.932578
L 418.527164 23.18293
L 420.962778 22.333328
L 423.398392 22.849814
L 425.834005 11.118182
L 428.269619 11.58708
L 430.705232 12.726803
L 433.140846 11.692912
L 435.57646 12.14803
" clip-path="url(#p8e1a8a1ba0)" style="fill: none; stroke-dasharray: 3.7,1.6; stroke-dashoffset: 0; stroke: #b14539"/>
   </g>
   <g id="patch_3">
    <path d="M 57.082109 93.4
L 57.082109 7.2
" style="fill: none; stroke: #bbc8c2; stroke-width: 0.8; stroke-linejoin: miter; stroke-linecap: square"/>
   </g>
   <g id="patch_4">
    <path d="M 57.082109 93.4
L 453.6 93.4
" style="fill: none; stroke: #bbc8c2; stroke-width: 0.8; stroke-linejoin: miter; stroke-linecap: square"/>
   </g>
   <g id="legend_1">
    <g id="line2d_14">
     <path d="M 63.382109 16.368906
L 70.382109 16.368906
L 77.382109 16.368906
" style="fill: none; stroke: #27665d; stroke-linecap: square"/>
    </g>
    <g id="text_14">
     <!-- FRED -->
     <g transform="translate(82.982109 18.818906) scale(0.07 -0.07)">
      <defs>
       <path id="DejaVuSans-29" d="M 628 4666
L 3309 4666
L 3309 4134
L 1259 4134
L 1259 2759
L 3109 2759
L 3109 2228
L 1259 2228
L 1259 0
L 628 0
L 628 4666
z
" transform="scale(0.015625)"/>
       <path id="DejaVuSans-35" d="M 2841 2188
Q 3044 2119 3236 1894
Q 3428 1669 3622 1275
L 4263 0
L 3584 0
L 2988 1197
Q 2756 1666 2539 1819
Q 2322 1972 1947 1972
L 1259 1972
L 1259 0
L 628 0
L 628 4666
L 2053 4666
Q 2853 4666 3247 4331
Q 3641 3997 3641 3322
Q 3641 2881 3436 2590
Q 3231 2300 2841 2188
z
M 1259 4147
L 1259 2491
L 2053 2491
Q 2509 2491 2742 2702
Q 2975 2913 2975 3322
Q 2975 3731 2742 3939
Q 2509 4147 2053 4147
L 1259 4147
z
" transform="scale(0.015625)"/>
       <path id="DejaVuSans-27" d="M 1259 4147
L 1259 519
L 2022 519
Q 2988 519 3436 956
Q 3884 1394 3884 2338
Q 3884 3275 3436 3711
Q 2988 4147 2022 4147
L 1259 4147
z
M 628 4666
L 1925 4666
Q 3281 4666 3915 4102
Q 4550 3538 4550 2338
Q 4550 1131 3912 565
Q 3275 0 1925 0
L 628 0
L 628 4666
z
" transform="scale(0.015625)"/>
      </defs>
      <use xlink:href="#DejaVuSans-29"/>
      <use xlink:href="#DejaVuSans-35" transform="translate(57.515625 0)"/>
      <use xlink:href="#DejaVuSans-28" transform="translate(127 0)"/>
      <use xlink:href="#DejaVuSans-27" transform="translate(190.1875 0)"/>
     </g>
    </g>
    <g id="line2d_15">
     <path d="M 63.382109 26.869453
L 70.382109 26.869453
L 77.382109 26.869453
" style="fill: none; stroke-dasharray: 3.7,1.6; stroke-dashoffset: 0; stroke: #b14539"/>
    </g>
    <g id="text_15">
     <!-- OECD -->
     <g transform="translate(82.982109 29.319453) scale(0.07 -0.07)">
      <defs>
       <path id="DejaVuSans-32" d="M 2522 4238
Q 1834 4238 1429 3725
Q 1025 3213 1025 2328
Q 1025 1447 1429 934
Q 1834 422 2522 422
Q 3209 422 3611 934
Q 4013 1447 4013 2328
Q 4013 3213 3611 3725
Q 3209 4238 2522 4238
z
M 2522 4750
Q 3503 4750 4090 4092
Q 4678 3434 4678 2328
Q 4678 1225 4090 567
Q 3503 -91 2522 -91
Q 1538 -91 948 565
Q 359 1222 359 2328
Q 359 3434 948 4092
Q 1538 4750 2522 4750
z
" transform="scale(0.015625)"/>
       <path id="DejaVuSans-26" d="M 4122 4306
L 4122 3641
Q 3803 3938 3442 4084
Q 3081 4231 2675 4231
Q 1875 4231 1450 3742
Q 1025 3253 1025 2328
Q 1025 1406 1450 917
Q 1875 428 2675 428
Q 3081 428 3442 575
Q 3803 722 4122 1019
L 4122 359
Q 3791 134 3420 21
Q 3050 -91 2638 -91
Q 1578 -91 968 557
Q 359 1206 359 2328
Q 359 3453 968 4101
Q 1578 4750 2638 4750
Q 3056 4750 3426 4639
Q 3797 4528 4122 4306
z
" transform="scale(0.015625)"/>
      </defs>
      <use xlink:href="#DejaVuSans-32"/>
      <use xlink:href="#DejaVuSans-28" transform="translate(78.71875 0)"/>
      <use xlink:href="#DejaVuSans-26" transform="translate(141.90625 0)"/>
      <use xlink:href="#DejaVuSans-27" transform="translate(211.734375 0)"/>
     </g>
    </g>
   </g>
  </g>
 </g>
 <defs>
  <clipPath id="p8e1a8a1ba0">
   <rect x="57.082109" y="7.2" width="396.517891" height="86.2"/>
  </clipPath>
 </defs>
</svg>
